<svg width="242" height="32" viewBox="0 0 242 32" fill="none" xmlns="http://www.w3.org/2000/svg">
<g clip-path="url(#clip0_75_5195)">
<path d="M24.6826 2.13379H30.9646L27.2447 29.3719H20.9248L24.6826 2.13379Z" fill="white"/>
<path d="M57.421 2.13379L53.7011 29.3719H48.0075L40.1313 11.3147L37.6451 29.3719H31.7427L35.5005 2.13379H41.8204L49.2221 19.0671L51.5565 2.13379H57.421Z" fill="white"/>
<path d="M81.619 8.11426H73.8946L70.9529 29.3714H64.6709L67.5936 8.11426H59.8693L60.6854 2.11426H82.435L81.619 8.11426Z" fill="white"/>
<path d="M91.1653 8.11425L90.4631 13.3333H100.901L100.237 18.4H89.7609L88.9448 24.3238H100.465L99.7627 29.3904H81.9227L85.6805 2.15234H103.141L102.325 8.15234L91.1653 8.11425Z" fill="white"/>
<path d="M121.133 19.41L125.289 29.3719H118.533L115.079 20.3052H111.662L110.429 29.3719H104.128L107.886 2.13379H118.533C124.037 2.13379 127.301 4.93379 127.301 10.2671C127.301 14.6862 124.929 17.9243 121.133 19.41ZM112.327 15.5052H116.046C119.463 15.5052 120.962 13.829 120.962 11.2576C120.962 9.27665 119.69 8.0576 117.014 8.0576H113.333L112.327 15.5052Z" fill="white"/>
<path d="M151.765 9.63855C151.765 15.5243 148.007 18.9719 141.649 18.9719H134.475L133.033 29.3719H131.59L135.31 2.13379H143.186C148.747 2.13379 151.765 4.57188 151.765 9.63855ZM150.379 9.82903C150.379 5.6576 147.741 3.67665 143.167 3.67665H136.563L134.627 17.6195H141.763C147.267 17.6195 150.379 14.7624 150.379 9.82903Z" fill="white"/>
<path d="M168.561 21.3147H155.408L151.29 29.3719H149.81L163.74 2.13379H165.41L171.92 29.3719H170.44L168.561 21.3147ZM168.257 19.9814L164.423 3.56236L156.092 19.9814H168.257Z" fill="white"/>
<path d="M199.819 13.6005C199.819 22.21 195.169 29.3719 183.573 29.3719H176.703L180.423 2.13379H187.369C195.663 2.13379 199.819 6.68617 199.819 13.6005ZM198.339 13.7147C198.339 7.60046 194.657 3.71474 187.046 3.71474H181.599L178.316 28.0005H183.706C194.201 28.0005 198.339 21.7909 198.339 13.7147Z" fill="white"/>
<path d="M207.733 3.52427L206.177 14.9719H218.817L218.665 16.2481H206.025L204.431 28.0385H218.551L218.361 29.3719H202.78L206.499 2.13379H221.739L221.55 3.52427H207.733Z" fill="white"/>
<path d="M239.143 28.0005L238.953 29.3719H223.808L227.528 2.13379H228.97L225.421 28.0005H239.143Z" fill="white"/>
<path opacity="0.33" d="M5.49502 17.9427C4.96362 17.3904 4.18549 17.1618 3.44531 17.3332C3.93876 17.3904 4.39425 17.6189 4.75485 17.9808C5.60889 18.857 5.57094 20.2666 4.69791 21.1237C4.41323 21.4094 4.05263 21.5999 3.65408 21.6951C4.86872 21.8475 5.96949 20.9713 6.12132 19.7713C6.19724 19.0856 5.96949 18.4189 5.49502 17.9427Z" fill="black"/>
<path opacity="0.33" d="M5.72282 13.5432C5.43813 13.8289 5.05856 14.0194 4.66 14.1146C5.87465 14.267 6.97541 13.4099 7.12725 12.2099C7.27908 10.9908 6.42503 9.88607 5.22937 9.73369C4.98264 9.69559 4.71694 9.71464 4.47021 9.77178C4.96366 9.82892 5.41915 10.0575 5.77975 10.4194C6.6338 11.2765 6.61482 12.6861 5.72282 13.5432Z" fill="black"/>
<path opacity="0.66" d="M8.58856 24.9147C9.08201 24.9719 9.55648 25.2005 9.8981 25.5624C10.7521 26.4385 10.7142 27.8481 9.84116 28.7052C9.55648 28.9909 9.1769 29.1814 8.77835 29.2766C9.99299 29.429 11.0938 28.5719 11.2456 27.3719C11.3974 26.1528 10.5434 25.0481 9.34771 24.8957C9.10099 24.8576 8.83529 24.8576 8.58856 24.9147Z" fill="black"/>
<path opacity="0.66" d="M11.6252 17.9427C11.0938 17.3904 10.3157 17.1618 9.5755 17.3332C10.0689 17.3904 10.5244 17.6189 10.885 17.9808C11.7391 18.857 11.7011 20.2666 10.8281 21.1237C10.5434 21.4094 10.1638 21.5999 9.76529 21.6951C10.9799 21.8475 12.0807 20.9713 12.2325 19.7713C12.3084 19.1046 12.0807 18.438 11.6252 17.9427Z" fill="black"/>
<path opacity="0.66" d="M11.8529 13.5432C11.5682 13.8289 11.1886 14.0194 10.7901 14.1146C12.0047 14.267 13.1055 13.4099 13.2573 12.2099C13.4091 10.9908 12.5551 9.88607 11.3594 9.73369C11.1127 9.69559 10.847 9.71464 10.6003 9.77178C11.0937 9.82892 11.5682 10.0575 11.9098 10.4194C12.7639 11.2956 12.7259 12.6861 11.8529 13.5432Z" fill="black"/>
<path opacity="0.66" d="M13.0106 5.96216C12.7259 6.24787 12.3463 6.43835 11.9478 6.53358C13.1624 6.68597 14.2632 5.82882 14.415 4.62882C14.5669 3.40977 13.7128 2.30501 12.5171 2.15263C12.2704 2.11454 12.0047 2.13358 11.758 2.19073C12.2514 2.24787 12.7259 2.47644 13.0675 2.83835C13.9216 3.69549 13.9026 5.10501 13.0106 5.96216Z" fill="black"/>
<path d="M14.7188 24.9334C15.2122 24.9906 15.6867 25.2191 16.0283 25.5811C16.8823 26.4572 16.8444 27.8668 15.9713 28.7239C15.6867 29.0096 15.3071 29.2001 14.9085 29.2953C16.1232 29.4477 17.224 28.5906 17.3758 27.3906C17.5276 26.1715 16.6736 25.0668 15.4779 24.9144C15.2122 24.8572 14.9655 24.8763 14.7188 24.9334Z" fill="black"/>
<path d="M15.6866 17.3329C16.9013 17.4853 17.7553 18.5901 17.5845 19.8091C17.4707 20.7424 16.7874 21.4853 15.8764 21.6948C16.5407 21.7901 17.2049 21.5615 17.6794 21.0853C18.5524 20.2472 18.5904 18.8377 17.7553 17.9615C17.2239 17.4091 16.4458 17.1615 15.6866 17.3329Z" fill="black"/>
<path d="M16.7305 9.75263C17.9451 9.90501 18.7992 11.0098 18.6283 12.2288C18.5145 13.1622 17.8312 13.905 16.9203 14.1145C18.1349 14.2669 19.2357 13.4098 19.3875 12.2098C19.5393 10.9907 18.6853 9.88596 17.4896 9.73358C17.2239 9.69549 16.9772 9.69549 16.7305 9.75263Z" fill="black"/>
<path d="M19.9568 2.78063C19.4254 2.22825 18.6473 1.99968 17.9071 2.17111C18.4006 2.22825 18.856 2.45682 19.2166 2.81873C20.0707 3.69492 20.0327 5.10444 19.1597 5.96159C18.875 6.2473 18.4954 6.43778 18.0969 6.53301C19.3115 6.6854 20.4123 5.82825 20.5641 4.60921C20.6401 3.94254 20.4123 3.27587 19.9568 2.78063Z" fill="black"/>
<path opacity="0.33" d="M4.75489 17.9816C4.41327 17.6197 3.9388 17.3911 3.44535 17.3339C2.23071 17.1816 1.14892 18.0387 0.997091 19.2578C0.84526 20.4768 1.69931 21.5625 2.91395 21.7149C4.12859 21.8673 5.21038 21.0101 5.36221 19.7911C5.43813 19.1244 5.21038 18.4578 4.75489 17.9816Z" fill="#C2FF00"/>
<path opacity="0.33" d="M4.67897 14.1148C5.87464 13.8481 6.63379 12.6862 6.36809 11.4862C6.1783 10.5719 5.41915 9.86718 4.48918 9.75289C3.27454 9.60051 2.17377 10.4577 2.02194 11.6767C1.94603 12.3434 2.15479 13.01 2.62926 13.4862C3.14169 14.0386 3.9388 14.2672 4.67897 14.1148Z" fill="#C2FF00"/>
<path opacity="0.66" d="M9.89809 25.5617C9.55647 25.1997 9.082 24.9712 8.58855 24.914C7.37391 24.7617 6.27314 25.6188 6.12131 26.8188C5.96948 28.0378 6.82352 29.1426 8.01918 29.295C8.26591 29.3331 8.53161 29.314 8.77834 29.2569C9.974 28.9902 10.7142 27.8093 10.4485 26.6093C10.3726 26.2283 10.1828 25.8664 9.89809 25.5617Z" fill="#C2FF00"/>
<path opacity="0.66" d="M10.866 17.9816C10.5244 17.6197 10.05 17.3911 9.55651 17.334C8.34186 17.1816 7.24109 18.0387 7.08926 19.2387C6.93743 20.4578 7.79148 21.5625 8.98714 21.7149C9.23387 21.753 9.49957 21.734 9.74629 21.6768C10.942 21.4101 11.6821 20.2292 11.4164 19.0292C11.3405 18.6482 11.1507 18.2863 10.866 17.9816Z" fill="#C2FF00"/>
<path opacity="0.66" d="M10.7901 14.1148C11.1887 14.0196 11.5493 13.8291 11.8529 13.5434C12.726 12.6862 12.7449 11.2958 11.9099 10.4005C11.5682 10.0386 11.0938 9.81004 10.6003 9.7529C9.38569 9.60052 8.28492 10.4577 8.13309 11.6577C7.98126 12.8767 8.8353 13.9815 10.031 14.1339C10.2967 14.1719 10.5434 14.1719 10.7901 14.1148Z" fill="#C2FF00"/>
<path opacity="0.66" d="M11.9668 6.53375C12.3654 6.43851 12.726 6.24804 13.0296 5.96232C13.9026 5.10518 13.9216 3.7147 13.0866 2.81946C12.7449 2.45756 12.2705 2.22899 11.777 2.17185C10.5624 2.01946 9.46161 2.87661 9.30978 4.07661C9.15795 5.29566 10.012 6.40042 11.2077 6.5528C11.4544 6.59089 11.7201 6.59089 11.9668 6.53375Z" fill="#C2FF00"/>
<path d="M16.0283 25.5812C15.6867 25.2193 15.2122 24.9907 14.7187 24.9336C13.5041 24.7812 12.4033 25.6383 12.2515 26.8383C12.0997 28.0574 12.9537 29.1621 14.1494 29.3145C14.3961 29.3526 14.6618 29.3336 14.9085 29.2764C15.3071 29.1812 15.6677 28.9907 15.9713 28.705C16.8444 27.8669 16.8633 26.4574 16.0283 25.5812Z" fill="#C2FF00"/>
<path d="M16.9962 17.9999C16.6546 17.638 16.1801 17.4095 15.6866 17.3523C15.0224 17.2761 14.3581 17.5047 13.8647 17.9619C12.9916 18.819 12.9916 20.2285 13.8267 21.0857C14.6808 21.9619 16.0852 21.9619 16.9392 21.1238C17.8312 20.2666 17.8502 18.8571 16.9962 17.9999Z" fill="#C2FF00"/>
<path d="M18.04 10.3998C17.186 9.52357 15.8005 9.48548 14.9085 10.3426C14.0355 11.1998 13.9976 12.5902 14.8516 13.4855C15.7057 14.3617 17.0911 14.3998 17.9831 13.5426C18.8561 12.7045 18.8941 11.3141 18.059 10.4188C18.04 10.4188 18.04 10.4188 18.04 10.3998Z" fill="#C2FF00"/>
<path d="M19.1977 2.81915C18.8561 2.45725 18.3816 2.22868 17.8882 2.17153C17.2239 2.09534 16.5597 2.30487 16.0662 2.78106C15.1932 3.6382 15.1932 5.04772 16.0472 5.92391C16.9013 6.8001 18.3057 6.8001 19.1598 5.96201C20.0328 5.08582 20.0518 3.69534 19.1977 2.81915Z" fill="#C2FF00"/>
</g>
<defs>
<clipPath id="clip0_75_5195">
<rect width="241.6" height="32" fill="white" transform="translate(0.199951)"/>
</clipPath>
</defs>
</svg>
