<svg xmlns="http://www.w3.org/2000/svg" width="158" height="127" fill="none" viewBox="0 0 158 127"><rect width="72.807" height="99" x="84.5" y=".5" fill="#fff" stroke="#E2E6EF" rx="4.5"/><rect width="12.467" height="8" x="137.807" y="84.68" fill="#E2E6EF" rx="4"/><rect width="37" height="8" x="90.807" y="84.68" fill="#E2E6EF" rx="4"/><rect width="59" height="60" x="90.807" y="16.68" fill="#E2E6EF" rx="2"/><rect width="8" height="8" x="141.807" y="5.68" fill="#E2E6EF" rx="4"/><rect width="72.807" height="99" x=".5" y=".5" fill="#fff" stroke="#E2E6EF" rx="4.5"/><rect width="12.467" height="8" x="53.807" y="84.68" fill="#E2E6EF" rx="4"/><rect width="37" height="8" x="6.807" y="84.68" fill="#E2E6EF" rx="4"/><rect width="59" height="60" x="6.807" y="16.68" fill="#E2E6EF" rx="2"/><rect width="8" height="8" x="57.807" y="5.68" fill="#E2E6EF" rx="4"/><rect width="72.807" height="99" x="44.5" y="27.5" fill="#fff" stroke="#E2E6EF" rx="4.5"/><rect width="12.467" height="8" x="97.807" y="111.68" fill="#E2E6EF" rx="4"/><rect width="37" height="8" x="50.807" y="111.68" fill="#E2E6EF" rx="4"/><rect width="59" height="60" x="50.807" y="43.68" fill="#E2E6EF" rx="2"/><rect width="8" height="8" x="101.807" y="32.68" fill="#E2E6EF" rx="4"/></svg>