<svg width="28" height="32" viewBox="0 0 28 32" fill="none" xmlns="http://www.w3.org/2000/svg">
<g clip-path="url(#clip0_75_5191)">
<path d="M22.8368 16.8545C22.8228 14.2412 23.9823 12.2688 26.3292 10.8162C25.0161 8.90076 23.0323 7.84691 20.413 7.64041C17.9334 7.44103 15.2232 9.11437 14.2314 9.11437C13.1836 9.11437 10.7808 7.71162 8.8949 7.71162C4.99733 7.7757 0.855286 10.8803 0.855286 17.1963C0.855286 19.0619 1.19056 20.9892 1.86111 22.9782C2.75518 25.5915 5.9822 32 9.34892 31.8932C11.1091 31.8505 12.3524 30.6186 14.6435 30.6186C16.8647 30.6186 18.0172 31.8932 19.9799 31.8932C23.3746 31.8433 26.2943 26.0187 27.1464 23.3983C22.5923 21.2123 22.8368 16.9898 22.8368 16.8545V16.8545ZM18.8833 5.16244C20.7902 2.85536 20.6156 0.754784 20.5597 0C18.8763 0.0996885 16.9275 1.16778 15.8169 2.48509C14.5946 3.89497 13.8751 5.63952 14.0288 7.60481C15.8519 7.74722 17.5143 6.79306 18.8833 5.16244V5.16244Z" fill="white"/>
</g>
<defs>
<clipPath id="clip0_75_5191">
<rect width="28" height="32" fill="white"/>
</clipPath>
</defs>
</svg>
